<?xml version="1.0" encoding="utf-8"?>
<!-- Designed by Vexels.com - 2016 All Rights Reserved - https://vexels.com/terms-and-conditions/  -->

<svg version="1.1" id="Layer_1" xmlns="http://www.w3.org/2000/svg" xmlns:xlink="http://www.w3.org/1999/xlink" x="0px" y="0px"
	 width="1200px" height="1200px" viewBox="0 0 1200 1200" enable-background="new 0 0 1200 1200" xml:space="preserve">
<g>
	<g>
		<path fill="#25526B" d="M929.909,540.957c0,242.96-196.953,439.959-439.95,439.959C246.981,980.916,50,783.918,50,540.957
			C50,297.96,246.981,100.98,489.959,100.98C732.956,100.98,929.909,297.96,929.909,540.957z"/>
		<g>
			<defs>
				<path id="SVGID_1_" d="M929.909,540.957c0,242.96-196.953,439.959-439.95,439.959C246.981,980.916,50,783.918,50,540.957
					C50,297.96,246.981,100.98,489.959,100.98C732.956,100.98,929.909,297.96,929.909,540.957z"/>
			</defs>
			<clipPath id="SVGID_2_">
				<use xlink:href="#SVGID_1_"  overflow="visible"/>
			</clipPath>
			<linearGradient id="SVGID_3_" gradientUnits="userSpaceOnUse" x1="985.9769" y1="993.8992" x2="559.4196" y2="640.4655">
				<stop  offset="0" style="stop-color:#FFFFFF"/>
				<stop  offset="0.0718" style="stop-color:#DFDFDF"/>
				<stop  offset="0.2156" style="stop-color:#A5A5A5"/>
				<stop  offset="0.3593" style="stop-color:#727272"/>
				<stop  offset="0.4998" style="stop-color:#494949"/>
				<stop  offset="0.6362" style="stop-color:#292929"/>
				<stop  offset="0.7674" style="stop-color:#121212"/>
				<stop  offset="0.8912" style="stop-color:#050505"/>
				<stop  offset="1" style="stop-color:#000000"/>
			</linearGradient>
			<polygon opacity="0.5" clip-path="url(#SVGID_2_)" fill="url(#SVGID_3_)" points="234.732,745.414 588.339,1099.02 
				1041.638,1097.762 1150,843.719 979.099,596.854 726.878,344.624 604.677,360.999 446.737,364.571 438.049,397.062 
				397.834,436.787 331.964,510.225 390.312,566.807 339.032,621.611 291.906,637.654 276.261,690.997 296.79,694.143 
				312.573,697.306 			"/>
		</g>
		<polygon fill="#00B1B9" points="489.072,363.239 492.615,464.023 672.961,462.265 699.485,365.015 		"/>
		<g>
			<path fill="#FAB30B" d="M396.539,548.914c-153.943-4.182-162.38,196.444-162.38,196.444
				c129.056,70.718,330.681,11.805,330.681,11.805C569.077,752.611,572.611,553.706,396.539,548.914z"/>
			<g>
				<path fill="#FAB30B" d="M442.019,378.67c-17.263-13.451-40.059-20.556-64.168-18.133c-48.144,4.811-83.448,45.702-78.878,91.348
					c4.589,45.628,47.312,78.711,95.419,73.881c32.269-3.219,58.71-22.703,71.291-48.884
					C487.942,417.359,443.425,377.892,442.019,378.67z"/>
				<path fill="#FFFFFF" d="M644.143,301.716H540.508c-42.371,0-78.544,25.978-93.772,62.854
					c9.196,4.718,29.142,19.817,36.71,46.868c7.031,25.052,7.568,55.156-7.031,75.176c11.601,10.232,22.407,15.579,37.82,19.687
					l-32.454,37.339l89.609-33.897h72.753c56.119,0,101.618-45.498,101.618-101.617v-4.775
					C745.76,347.215,700.262,301.716,644.143,301.716z M671.509,435.01H509.757v-19.871h161.752V435.01z M671.509,395.267H509.757
					v-19.853h161.752V395.267z"/>
			</g>
		</g>
		<g>
			<path opacity="0.5" fill="#FFFFFF" d="M397.88,361.869c-5.218-0.388-10.529-0.388-15.922,0.149
				c-48.144,4.811-83.448,45.702-78.878,91.366c0.953,9.436,3.618,18.299,7.54,26.44
				C309.418,439.211,323.564,384.405,397.88,361.869z"/>
		</g>
		<path opacity="0.5" fill="#FFFFFF" d="M358.386,559.275c-112.053,24.998-118.769,183.419-118.769,183.419
			c16.005,8.77,33.213,15.394,51.003,20.371C288.297,650.808,338.763,581.775,358.386,559.275z"/>
	</g>
	<path opacity="0.3" d="M514.938,506.653c0,0-3.081,12.674,8.891,20.464L483.9,542.087
		C483.9,542.087,500.459,523.417,514.938,506.653z"/>
</g>
</svg>
